<mxfile host="app.diagrams.net" modified="2024-04-06T22:27:51.933Z" agent="Mozilla/5.0 (Windows NT 10.0; Win64; x64; rv:124.0) Gecko/20100101 Firefox/124.0" etag="K-EHXfALbCN-AJbzfg_u" version="24.2.2" type="github">
  <diagram name="Page-1" id="TGgWqXuE1IWvRGq6BxiU">
    <mxGraphModel dx="2284" dy="1904" grid="1" gridSize="10" guides="1" tooltips="1" connect="1" arrows="1" fold="1" page="1" pageScale="1" pageWidth="850" pageHeight="1100" math="0" shadow="0">
      <root>
        <mxCell id="0" />
        <mxCell id="1" parent="0" />
        <mxCell id="kFgDq9HKoR-4JnCqN2cn-78" value="" style="html=1;verticalAlign=bottom;startArrow=oval;startFill=1;endArrow=block;startSize=8;curved=0;rounded=0;fontSize=12;dashed=1;exitX=1;exitY=0.5;exitDx=0;exitDy=0;strokeWidth=2;" parent="1" edge="1">
          <mxGeometry width="60" relative="1" as="geometry">
            <mxPoint x="280" y="380" as="sourcePoint" />
            <mxPoint x="300" y="880" as="targetPoint" />
            <Array as="points">
              <mxPoint x="340" y="380" />
              <mxPoint x="340" y="880" />
            </Array>
          </mxGeometry>
        </mxCell>
        <mxCell id="kFgDq9HKoR-4JnCqN2cn-1" value="" style="rounded=0;whiteSpace=wrap;html=1;" parent="1" vertex="1">
          <mxGeometry x="240" y="840" width="40" height="40" as="geometry" />
        </mxCell>
        <mxCell id="kFgDq9HKoR-4JnCqN2cn-3" value="&lt;font style=&quot;font-size: 25px;&quot;&gt;Local&lt;/font&gt;" style="rounded=0;whiteSpace=wrap;html=1;" parent="1" vertex="1">
          <mxGeometry x="80" y="840" width="160" height="40" as="geometry" />
        </mxCell>
        <mxCell id="kFgDq9HKoR-4JnCqN2cn-6" value="&lt;font style=&quot;font-size: 25px;&quot;&gt;Bigsub&lt;/font&gt;" style="text;strokeColor=none;fillColor=none;html=1;align=center;verticalAlign=middle;whiteSpace=wrap;rounded=0;fontSize=16;" parent="1" vertex="1">
          <mxGeometry x="-10" y="845" width="60" height="30" as="geometry" />
        </mxCell>
        <mxCell id="kFgDq9HKoR-4JnCqN2cn-7" value="&lt;font style=&quot;font-size: 20px;&quot;&gt;MySum&lt;/font&gt;" style="text;strokeColor=none;fillColor=none;html=1;align=center;verticalAlign=middle;whiteSpace=wrap;rounded=0;fontSize=16;" parent="1" vertex="1">
          <mxGeometry x="350" y="850" width="60" height="30" as="geometry" />
        </mxCell>
        <mxCell id="kFgDq9HKoR-4JnCqN2cn-8" value="" style="rounded=0;whiteSpace=wrap;html=1;" parent="1" vertex="1">
          <mxGeometry x="800" y="-10" width="40" height="40" as="geometry" />
        </mxCell>
        <mxCell id="kFgDq9HKoR-4JnCqN2cn-9" value="&lt;font style=&quot;font-size: 25px;&quot;&gt;Local&lt;/font&gt;" style="rounded=0;whiteSpace=wrap;html=1;" parent="1" vertex="1">
          <mxGeometry x="640" y="-10" width="160" height="40" as="geometry" />
        </mxCell>
        <mxCell id="kFgDq9HKoR-4JnCqN2cn-10" value="" style="rounded=0;whiteSpace=wrap;html=1;" parent="1" vertex="1">
          <mxGeometry x="800" y="60" width="40" height="40" as="geometry" />
        </mxCell>
        <mxCell id="kFgDq9HKoR-4JnCqN2cn-11" value="&lt;font style=&quot;font-size: 18px;&quot;&gt;Dynamic link&lt;/font&gt;" style="rounded=0;whiteSpace=wrap;html=1;" parent="1" vertex="1">
          <mxGeometry x="640" y="60" width="160" height="40" as="geometry" />
        </mxCell>
        <mxCell id="kFgDq9HKoR-4JnCqN2cn-14" value="" style="rounded=0;whiteSpace=wrap;html=1;" parent="1" vertex="1">
          <mxGeometry x="800" y="100" width="40" height="40" as="geometry" />
        </mxCell>
        <mxCell id="kFgDq9HKoR-4JnCqN2cn-15" value="&lt;font style=&quot;font-size: 20px;&quot;&gt;Static link&lt;/font&gt;" style="rounded=0;whiteSpace=wrap;html=1;" parent="1" vertex="1">
          <mxGeometry x="640" y="100" width="160" height="40" as="geometry" />
        </mxCell>
        <mxCell id="kFgDq9HKoR-4JnCqN2cn-16" value="" style="rounded=0;whiteSpace=wrap;html=1;" parent="1" vertex="1">
          <mxGeometry x="1080" y="20" width="40" height="40" as="geometry" />
        </mxCell>
        <mxCell id="kFgDq9HKoR-4JnCqN2cn-17" value="&lt;font style=&quot;font-size: 25px;&quot;&gt;Local&lt;/font&gt;" style="rounded=0;whiteSpace=wrap;html=1;" parent="1" vertex="1">
          <mxGeometry x="920" y="20" width="160" height="40" as="geometry" />
        </mxCell>
        <mxCell id="kFgDq9HKoR-4JnCqN2cn-18" value="&lt;font style=&quot;font-size: 20px;&quot;&gt;MySum&lt;/font&gt;" style="text;strokeColor=none;fillColor=none;html=1;align=center;verticalAlign=middle;whiteSpace=wrap;rounded=0;fontSize=16;" parent="1" vertex="1">
          <mxGeometry x="1130" y="25" width="60" height="30" as="geometry" />
        </mxCell>
        <mxCell id="kFgDq9HKoR-4JnCqN2cn-19" value="" style="rounded=0;whiteSpace=wrap;html=1;" parent="1" vertex="1">
          <mxGeometry x="800" y="140" width="40" height="40" as="geometry" />
        </mxCell>
        <mxCell id="kFgDq9HKoR-4JnCqN2cn-20" value="&lt;font style=&quot;font-size: 20px;&quot;&gt;Return (to Bisub)&lt;br&gt;&lt;/font&gt;" style="rounded=0;whiteSpace=wrap;html=1;" parent="1" vertex="1">
          <mxGeometry x="640" y="140" width="160" height="40" as="geometry" />
        </mxCell>
        <mxCell id="kFgDq9HKoR-4JnCqN2cn-21" value="" style="rounded=0;whiteSpace=wrap;html=1;strokeColor=#0000FF;" parent="1" vertex="1">
          <mxGeometry x="240" y="720" width="40" height="40" as="geometry" />
        </mxCell>
        <mxCell id="kFgDq9HKoR-4JnCqN2cn-22" value="&lt;font style=&quot;font-size: 18px;&quot;&gt;Dynamic link&lt;/font&gt;" style="rounded=0;whiteSpace=wrap;html=1;strokeColor=#0000FF;" parent="1" vertex="1">
          <mxGeometry x="80" y="720" width="160" height="40" as="geometry" />
        </mxCell>
        <mxCell id="kFgDq9HKoR-4JnCqN2cn-23" value="" style="rounded=0;whiteSpace=wrap;html=1;strokeColor=#0000FF;" parent="1" vertex="1">
          <mxGeometry x="240" y="760" width="40" height="40" as="geometry" />
        </mxCell>
        <mxCell id="kFgDq9HKoR-4JnCqN2cn-24" value="&lt;font style=&quot;font-size: 20px;&quot;&gt;Static link&lt;/font&gt;" style="rounded=0;whiteSpace=wrap;html=1;strokeColor=#0000FF;" parent="1" vertex="1">
          <mxGeometry x="80" y="760" width="160" height="40" as="geometry" />
        </mxCell>
        <mxCell id="kFgDq9HKoR-4JnCqN2cn-25" value="" style="rounded=0;whiteSpace=wrap;html=1;strokeColor=#0000FF;" parent="1" vertex="1">
          <mxGeometry x="240" y="800" width="40" height="40" as="geometry" />
        </mxCell>
        <mxCell id="kFgDq9HKoR-4JnCqN2cn-26" value="&lt;font style=&quot;font-size: 20px;&quot;&gt;Return (to Bisub)&lt;br&gt;&lt;/font&gt;" style="rounded=0;whiteSpace=wrap;html=1;strokeColor=#0000FF;" parent="1" vertex="1">
          <mxGeometry x="80" y="800" width="160" height="40" as="geometry" />
        </mxCell>
        <mxCell id="kFgDq9HKoR-4JnCqN2cn-27" value="" style="rounded=0;whiteSpace=wrap;html=1;strokeColor=#0000CC;" parent="1" vertex="1">
          <mxGeometry x="240" y="680" width="40" height="40" as="geometry" />
        </mxCell>
        <mxCell id="kFgDq9HKoR-4JnCqN2cn-28" value="&lt;font style=&quot;font-size: 25px;&quot;&gt;Local&lt;/font&gt;" style="rounded=0;whiteSpace=wrap;html=1;strokeColor=#0000CC;" parent="1" vertex="1">
          <mxGeometry x="80" y="680" width="160" height="40" as="geometry" />
        </mxCell>
        <mxCell id="kFgDq9HKoR-4JnCqN2cn-29" value="&lt;font style=&quot;font-size: 20px;&quot;&gt;X&lt;/font&gt;" style="text;strokeColor=none;fillColor=none;html=1;align=center;verticalAlign=middle;whiteSpace=wrap;rounded=0;fontSize=16;" parent="1" vertex="1">
          <mxGeometry x="280" y="685" width="20" height="30" as="geometry" />
        </mxCell>
        <mxCell id="kFgDq9HKoR-4JnCqN2cn-32" value="" style="rounded=0;whiteSpace=wrap;html=1;" parent="1" vertex="1">
          <mxGeometry x="640" y="190" width="160" height="40" as="geometry" />
        </mxCell>
        <mxCell id="kFgDq9HKoR-4JnCqN2cn-34" value="" style="rounded=0;whiteSpace=wrap;html=1;" parent="1" vertex="1">
          <mxGeometry x="640" y="230" width="160" height="40" as="geometry" />
        </mxCell>
        <mxCell id="kFgDq9HKoR-4JnCqN2cn-38" value="" style="html=1;verticalAlign=bottom;startArrow=oval;startFill=1;endArrow=block;startSize=8;curved=0;rounded=0;fontSize=12;exitX=1;exitY=0.5;exitDx=0;exitDy=0;strokeColor=#0000CC;strokeWidth=2;" parent="1" source="kFgDq9HKoR-4JnCqN2cn-21" edge="1">
          <mxGeometry width="60" relative="1" as="geometry">
            <mxPoint x="280" y="700" as="sourcePoint" />
            <mxPoint x="280" y="880" as="targetPoint" />
            <Array as="points">
              <mxPoint x="300" y="740" />
              <mxPoint x="300" y="880" />
            </Array>
          </mxGeometry>
        </mxCell>
        <mxCell id="kFgDq9HKoR-4JnCqN2cn-41" value="" style="html=1;verticalAlign=bottom;startArrow=oval;startFill=1;endArrow=block;startSize=8;curved=0;rounded=0;fontSize=12;dashed=1;exitX=1;exitY=0.5;exitDx=0;exitDy=0;strokeWidth=2;" parent="1" source="kFgDq9HKoR-4JnCqN2cn-23" edge="1">
          <mxGeometry width="60" relative="1" as="geometry">
            <mxPoint x="300" y="780" as="sourcePoint" />
            <mxPoint x="290" y="880" as="targetPoint" />
            <Array as="points">
              <mxPoint x="320" y="780" />
              <mxPoint x="320" y="880" />
            </Array>
          </mxGeometry>
        </mxCell>
        <mxCell id="kFgDq9HKoR-4JnCqN2cn-43" value="" style="rounded=0;whiteSpace=wrap;html=1;strokeColor=#CC0000;" parent="1" vertex="1">
          <mxGeometry x="240" y="560" width="40" height="40" as="geometry" />
        </mxCell>
        <mxCell id="kFgDq9HKoR-4JnCqN2cn-44" value="&lt;font style=&quot;font-size: 18px;&quot;&gt;Dynamic link&lt;/font&gt;" style="rounded=0;whiteSpace=wrap;html=1;strokeColor=#CC0000;" parent="1" vertex="1">
          <mxGeometry x="80" y="560" width="160" height="40" as="geometry" />
        </mxCell>
        <mxCell id="kFgDq9HKoR-4JnCqN2cn-45" value="" style="rounded=0;whiteSpace=wrap;html=1;strokeColor=#CC0000;" parent="1" vertex="1">
          <mxGeometry x="240" y="600" width="40" height="40" as="geometry" />
        </mxCell>
        <mxCell id="kFgDq9HKoR-4JnCqN2cn-46" value="&lt;font style=&quot;font-size: 20px;&quot;&gt;Static link&lt;/font&gt;" style="rounded=0;whiteSpace=wrap;html=1;strokeColor=#CC0000;" parent="1" vertex="1">
          <mxGeometry x="80" y="600" width="160" height="40" as="geometry" />
        </mxCell>
        <mxCell id="kFgDq9HKoR-4JnCqN2cn-47" value="" style="rounded=0;whiteSpace=wrap;html=1;strokeColor=#CC0000;" parent="1" vertex="1">
          <mxGeometry x="240" y="640" width="40" height="40" as="geometry" />
        </mxCell>
        <mxCell id="kFgDq9HKoR-4JnCqN2cn-48" value="&lt;div&gt;&lt;font style=&quot;font-size: 20px;&quot;&gt;Return (to A)&lt;/font&gt;&lt;/div&gt;" style="rounded=0;whiteSpace=wrap;html=1;strokeColor=#CC0000;" parent="1" vertex="1">
          <mxGeometry x="80" y="640" width="160" height="40" as="geometry" />
        </mxCell>
        <mxCell id="kFgDq9HKoR-4JnCqN2cn-49" value="&lt;div&gt;&lt;font color=&quot;#cc0000&quot;&gt;ARI for B&lt;br&gt;&lt;/font&gt;&lt;/div&gt;" style="text;strokeColor=none;fillColor=none;html=1;align=center;verticalAlign=middle;whiteSpace=wrap;rounded=0;fontSize=16;" parent="1" vertex="1">
          <mxGeometry x="-20" y="630" width="60" height="30" as="geometry" />
        </mxCell>
        <mxCell id="kFgDq9HKoR-4JnCqN2cn-51" value="&lt;div&gt;&lt;font color=&quot;#0000cc&quot;&gt;ARI for A&lt;/font&gt;&lt;/div&gt;" style="text;strokeColor=none;fillColor=none;html=1;align=center;verticalAlign=middle;whiteSpace=wrap;rounded=0;fontSize=16;" parent="1" vertex="1">
          <mxGeometry x="-10" y="780" width="60" height="30" as="geometry" />
        </mxCell>
        <mxCell id="kFgDq9HKoR-4JnCqN2cn-52" value="" style="rounded=0;whiteSpace=wrap;html=1;strokeColor=#CC0000;" parent="1" vertex="1">
          <mxGeometry x="240" y="520" width="40" height="40" as="geometry" />
        </mxCell>
        <mxCell id="kFgDq9HKoR-4JnCqN2cn-53" value="&lt;font style=&quot;font-size: 24px;&quot;&gt;Parameter&lt;/font&gt;" style="rounded=0;whiteSpace=wrap;html=1;strokeColor=#CC0000;" parent="1" vertex="1">
          <mxGeometry x="80" y="520" width="160" height="40" as="geometry" />
        </mxCell>
        <mxCell id="kFgDq9HKoR-4JnCqN2cn-56" value="&lt;font style=&quot;font-size: 20px;&quot;&gt;X&lt;/font&gt;" style="text;strokeColor=none;fillColor=none;html=1;align=center;verticalAlign=middle;whiteSpace=wrap;rounded=0;fontSize=16;" parent="1" vertex="1">
          <mxGeometry x="250" y="525" width="20" height="30" as="geometry" />
        </mxCell>
        <mxCell id="kFgDq9HKoR-4JnCqN2cn-57" value="" style="html=1;verticalAlign=bottom;startArrow=oval;startFill=1;endArrow=block;startSize=8;curved=0;rounded=0;fontSize=12;dashed=1;exitX=1;exitY=0.5;exitDx=0;exitDy=0;entryX=1;entryY=1;entryDx=0;entryDy=0;strokeWidth=2;" parent="1" source="kFgDq9HKoR-4JnCqN2cn-45" target="kFgDq9HKoR-4JnCqN2cn-25" edge="1">
          <mxGeometry width="60" relative="1" as="geometry">
            <mxPoint x="290" y="790" as="sourcePoint" />
            <mxPoint x="290" y="840" as="targetPoint" />
            <Array as="points">
              <mxPoint x="330" y="620" />
              <mxPoint x="330" y="840" />
            </Array>
          </mxGeometry>
        </mxCell>
        <mxCell id="kFgDq9HKoR-4JnCqN2cn-58" value="" style="html=1;verticalAlign=bottom;startArrow=oval;startFill=1;endArrow=block;startSize=8;curved=0;rounded=0;fontSize=12;exitX=1;exitY=0.5;exitDx=0;exitDy=0;entryX=1;entryY=0.75;entryDx=0;entryDy=0;strokeColor=#CC0000;strokeWidth=2;" parent="1" source="kFgDq9HKoR-4JnCqN2cn-43" target="kFgDq9HKoR-4JnCqN2cn-25" edge="1">
          <mxGeometry width="60" relative="1" as="geometry">
            <mxPoint x="290" y="750" as="sourcePoint" />
            <mxPoint x="290" y="890" as="targetPoint" />
            <Array as="points">
              <mxPoint x="310" y="580" />
              <mxPoint x="310" y="830" />
            </Array>
          </mxGeometry>
        </mxCell>
        <mxCell id="kFgDq9HKoR-4JnCqN2cn-59" value="&lt;font style=&quot;font-size: 20px;&quot;&gt;Sum&lt;/font&gt;" style="text;strokeColor=none;fillColor=none;html=1;align=center;verticalAlign=middle;whiteSpace=wrap;rounded=0;fontSize=16;" parent="1" vertex="1">
          <mxGeometry x="270" y="525" width="60" height="30" as="geometry" />
        </mxCell>
        <mxCell id="kFgDq9HKoR-4JnCqN2cn-60" value="" style="rounded=0;whiteSpace=wrap;html=1;strokeColor=#CC0000;" parent="1" vertex="1">
          <mxGeometry x="240" y="480" width="40" height="40" as="geometry" />
        </mxCell>
        <mxCell id="kFgDq9HKoR-4JnCqN2cn-61" value="&lt;font style=&quot;font-size: 25px;&quot;&gt;Local&lt;/font&gt;" style="rounded=0;whiteSpace=wrap;html=1;strokeColor=#CC0000;" parent="1" vertex="1">
          <mxGeometry x="80" y="480" width="160" height="40" as="geometry" />
        </mxCell>
        <mxCell id="kFgDq9HKoR-4JnCqN2cn-62" value="" style="rounded=0;whiteSpace=wrap;html=1;strokeColor=#CC0000;" parent="1" vertex="1">
          <mxGeometry x="240" y="440" width="40" height="40" as="geometry" />
        </mxCell>
        <mxCell id="kFgDq9HKoR-4JnCqN2cn-63" value="&lt;font style=&quot;font-size: 25px;&quot;&gt;Local&lt;/font&gt;" style="rounded=0;whiteSpace=wrap;html=1;strokeColor=#CC0000;" parent="1" vertex="1">
          <mxGeometry x="80" y="440" width="160" height="40" as="geometry" />
        </mxCell>
        <mxCell id="kFgDq9HKoR-4JnCqN2cn-64" value="&lt;font style=&quot;font-size: 20px;&quot;&gt;Y&lt;/font&gt;" style="text;strokeColor=none;fillColor=none;html=1;align=center;verticalAlign=middle;whiteSpace=wrap;rounded=0;fontSize=16;" parent="1" vertex="1">
          <mxGeometry x="280" y="490" width="20" height="30" as="geometry" />
        </mxCell>
        <mxCell id="kFgDq9HKoR-4JnCqN2cn-66" value="" style="rounded=0;whiteSpace=wrap;html=1;strokeColor=#009900;" parent="1" vertex="1">
          <mxGeometry x="240" y="320" width="40" height="40" as="geometry" />
        </mxCell>
        <mxCell id="kFgDq9HKoR-4JnCqN2cn-67" value="&lt;font style=&quot;font-size: 18px;&quot;&gt;Dynamic link&lt;/font&gt;" style="rounded=0;whiteSpace=wrap;html=1;strokeColor=#009900;" parent="1" vertex="1">
          <mxGeometry x="80" y="320" width="160" height="40" as="geometry" />
        </mxCell>
        <mxCell id="kFgDq9HKoR-4JnCqN2cn-68" value="" style="rounded=0;whiteSpace=wrap;html=1;strokeColor=#009900;" parent="1" vertex="1">
          <mxGeometry x="240" y="360" width="40" height="40" as="geometry" />
        </mxCell>
        <mxCell id="kFgDq9HKoR-4JnCqN2cn-69" value="&lt;font style=&quot;font-size: 20px;&quot;&gt;Static link&lt;/font&gt;" style="rounded=0;whiteSpace=wrap;html=1;strokeColor=#009900;" parent="1" vertex="1">
          <mxGeometry x="80" y="360" width="160" height="40" as="geometry" />
        </mxCell>
        <mxCell id="kFgDq9HKoR-4JnCqN2cn-70" value="" style="rounded=0;whiteSpace=wrap;html=1;strokeColor=#009900;" parent="1" vertex="1">
          <mxGeometry x="240" y="400" width="40" height="40" as="geometry" />
        </mxCell>
        <mxCell id="kFgDq9HKoR-4JnCqN2cn-71" value="&lt;div&gt;&lt;font style=&quot;font-size: 20px;&quot;&gt;Return (to A)&lt;/font&gt;&lt;/div&gt;" style="rounded=0;whiteSpace=wrap;html=1;strokeColor=#009900;" parent="1" vertex="1">
          <mxGeometry x="80" y="400" width="160" height="40" as="geometry" />
        </mxCell>
        <mxCell id="kFgDq9HKoR-4JnCqN2cn-73" value="&lt;font style=&quot;font-size: 24px;&quot;&gt;Parameter&lt;/font&gt;" style="rounded=0;whiteSpace=wrap;html=1;strokeColor=#009900;" parent="1" vertex="1">
          <mxGeometry x="80" y="280" width="160" height="40" as="geometry" />
        </mxCell>
        <mxCell id="kFgDq9HKoR-4JnCqN2cn-75" value="" style="rounded=0;whiteSpace=wrap;html=1;strokeColor=#009900;" parent="1" vertex="1">
          <mxGeometry x="240" y="240" width="40" height="40" as="geometry" />
        </mxCell>
        <mxCell id="kFgDq9HKoR-4JnCqN2cn-76" value="&lt;font style=&quot;font-size: 25px;&quot;&gt;Local&lt;/font&gt;" style="rounded=0;whiteSpace=wrap;html=1;strokeColor=#009900;" parent="1" vertex="1">
          <mxGeometry x="80" y="240" width="160" height="40" as="geometry" />
        </mxCell>
        <mxCell id="kFgDq9HKoR-4JnCqN2cn-77" value="&lt;font style=&quot;font-size: 20px;&quot;&gt;Z&lt;/font&gt;" style="text;strokeColor=none;fillColor=none;html=1;align=center;verticalAlign=middle;whiteSpace=wrap;rounded=0;fontSize=16;" parent="1" vertex="1">
          <mxGeometry x="280" y="450" width="20" height="30" as="geometry" />
        </mxCell>
        <mxCell id="kFgDq9HKoR-4JnCqN2cn-72" value="" style="rounded=0;whiteSpace=wrap;html=1;strokeColor=#009900;" parent="1" vertex="1">
          <mxGeometry x="240" y="280" width="40" height="40" as="geometry" />
        </mxCell>
        <mxCell id="kFgDq9HKoR-4JnCqN2cn-65" value="&lt;font style=&quot;font-size: 20px;&quot;&gt;Z&lt;/font&gt;" style="text;strokeColor=none;fillColor=none;html=1;align=center;verticalAlign=middle;whiteSpace=wrap;rounded=0;fontSize=16;" parent="1" vertex="1">
          <mxGeometry x="250" y="285" width="20" height="30" as="geometry" />
        </mxCell>
        <mxCell id="kFgDq9HKoR-4JnCqN2cn-80" value="" style="html=1;verticalAlign=bottom;startArrow=oval;startFill=1;endArrow=block;startSize=8;curved=0;rounded=0;fontSize=12;exitX=1;exitY=0.5;exitDx=0;exitDy=0;entryX=1;entryY=1;entryDx=0;entryDy=0;strokeColor=#009900;strokeWidth=2;" parent="1" target="kFgDq9HKoR-4JnCqN2cn-47" edge="1">
          <mxGeometry width="60" relative="1" as="geometry">
            <mxPoint x="280" y="340" as="sourcePoint" />
            <mxPoint x="280" y="590" as="targetPoint" />
            <Array as="points">
              <mxPoint x="320" y="340" />
              <mxPoint x="320" y="680" />
            </Array>
          </mxGeometry>
        </mxCell>
        <mxCell id="kFgDq9HKoR-4JnCqN2cn-81" value="&lt;div&gt;&lt;font color=&quot;#009900&quot;&gt;ARI for C&lt;br&gt;&lt;/font&gt;&lt;/div&gt;" style="text;strokeColor=none;fillColor=none;html=1;align=center;verticalAlign=middle;whiteSpace=wrap;rounded=0;fontSize=16;" parent="1" vertex="1">
          <mxGeometry x="-20" y="315" width="60" height="30" as="geometry" />
        </mxCell>
      </root>
    </mxGraphModel>
  </diagram>
</mxfile>
